<svg xmlns="http://www.w3.org/2000/svg" xmlns:xlink="http://www.w3.org/1999/xlink" width="102" zoomAndPan="magnify" viewBox="0 0 76.5 75.749998" height="101" preserveAspectRatio="xMidYMid meet" version="1.0"><defs><clipPath id="cb956b048d"><path d="M 1.925781 2.507812 L 74.203125 2.507812 L 74.203125 75 L 1.925781 75 Z M 1.925781 2.507812 " clip-rule="nonzero"/></clipPath></defs><g clip-path="url(#cb956b048d)"><path fill="#46afcf" d="M 21.449219 51.09375 C 17.875 45.359375 13.144531 39.03125 5.332031 39.191406 C 5.332031 39.191406 7.386719 36.582031 11.308594 36.769531 C 11.308594 36.769531 13.71875 30.757812 19.066406 30.855469 C 19.882812 30.871094 20.652344 30.988281 21.398438 31.203125 C 24.554688 31.46875 25.421875 29.054688 25.421875 29.054688 C 25.65625 30.800781 25.148438 31.996094 24.574219 32.761719 C 26.695312 34.207031 28.933594 36.464844 31.878906 39.523438 C 51.992188 36.128906 55.320312 16.566406 55.320312 16.566406 C 58.160156 30.132812 52.710938 41.957031 48.375 48.757812 C 54.066406 49.589844 61.375 49.089844 70.78125 46.199219 C 70.78125 46.199219 38.054688 77.757812 21.449219 51.09375 Z M 47.195312 15.261719 C 48.320312 20.640625 48.144531 25.742188 47.25 30.371094 C 43.328125 34.664062 38.289062 37.398438 32.207031 38.519531 C 31.488281 37.773438 30.804688 37.074219 30.152344 36.417969 C 44.601562 30.511719 47.195312 15.261719 47.195312 15.261719 Z M 38.054688 2.5 C 18.121094 2.5 1.964844 18.628906 1.964844 38.527344 C 1.964844 58.425781 18.121094 74.558594 38.054688 74.558594 C 57.988281 74.558594 74.148438 58.425781 74.148438 38.527344 C 74.148438 18.628906 57.988281 2.5 38.054688 2.5 " fill-opacity="1" fill-rule="nonzero"/><path fill="#46afcf" d="M 21.449219 51.09375 C 17.875 45.359375 13.144531 39.03125 5.332031 39.191406 C 5.332031 39.191406 7.386719 36.582031 11.308594 36.769531 C 11.308594 36.769531 13.71875 30.757812 19.066406 30.855469 C 19.882812 30.871094 20.652344 30.988281 21.398438 31.203125 C 24.554688 31.46875 25.421875 29.054688 25.421875 29.054688 C 25.65625 30.800781 25.148438 31.996094 24.574219 32.761719 C 26.695312 34.207031 28.933594 36.464844 31.878906 39.523438 C 51.992188 36.128906 55.320312 16.566406 55.320312 16.566406 C 58.160156 30.132812 52.710938 41.957031 48.375 48.757812 C 54.066406 49.589844 61.375 49.089844 70.78125 46.199219 C 70.78125 46.199219 38.054688 77.757812 21.449219 51.09375 Z M 47.195312 15.261719 C 48.320312 20.640625 48.144531 25.742188 47.25 30.371094 C 43.328125 34.664062 38.289062 37.398438 32.207031 38.519531 C 31.488281 37.773438 30.804688 37.074219 30.152344 36.417969 C 44.601562 30.511719 47.195312 15.261719 47.195312 15.261719 Z M 38.054688 2.5 C 18.121094 2.5 1.964844 18.628906 1.964844 38.527344 C 1.964844 58.425781 18.121094 74.558594 38.054688 74.558594 C 57.988281 74.558594 74.148438 58.425781 74.148438 38.527344 C 74.148438 18.628906 57.988281 2.5 38.054688 2.5 " fill-opacity="1" fill-rule="nonzero"/></g></svg>