<svg xmlns="http://www.w3.org/2000/svg" xmlns:xlink="http://www.w3.org/1999/xlink" width="800" zoomAndPan="magnify" viewBox="0 0 600 599.999999" height="800" preserveAspectRatio="xMidYMid meet" version="1.0"><defs><g/><clipPath id="d6022c10e0"><path d="M 86.75 89.699219 L 527 89.699219 L 527 510.449219 L 86.75 510.449219 Z M 86.75 89.699219 " clip-rule="nonzero"/></clipPath></defs><g clip-path="url(#d6022c10e0)"><path fill="#ffffff" d="M 526.933594 267.84375 C 526.386719 244.878906 521.511719 226.628906 511.578125 210.402344 C 499.449219 190.582031 483.34375 180.527344 463.710938 180.527344 C 458.097656 180.527344 452.363281 181.417969 446.34375 183.179688 C 443.941406 156.894531 434.691406 134.183594 418.199219 114.042969 C 405.242188 98.277344 388.105469 89.59375 369.941406 89.59375 C 351.792969 89.59375 335.0625 98.226562 322.839844 113.878906 C 318.4375 119.511719 314.542969 125.222656 311.042969 130.992188 C 307.480469 125 303.535156 119.367188 299.175781 114.261719 C 281.871094 93.984375 263.523438 89.726562 251.179688 89.726562 C 233.238281 89.726562 216.289062 98.777344 203.457031 115.203125 C 186.867188 136.425781 177.441406 159.769531 175.382812 183.734375 C 168.621094 181.300781 161.652344 180 154.679688 180 C 130.617188 180 109.40625 194.457031 97.953125 218.644531 C 91.199219 232.878906 87.5625 248.933594 86.828125 267.722656 L 86.789062 268.824219 L 86.820312 269.925781 C 87.535156 295.179688 92.734375 315.171875 103.164062 332.804688 C 112.238281 348.191406 125.253906 359.996094 139.933594 366.886719 C 137.214844 372.09375 135.039062 377.730469 133.605469 383.886719 C 125.855469 417.308594 139.238281 444.753906 149.972656 462.480469 C 169.3125 494.457031 194.992188 510.003906 228.472656 510.003906 C 237.195312 510.003906 246.308594 508.941406 256.328125 506.761719 C 291.34375 499.152344 321.167969 499.152344 351.253906 506.710938 C 361.332031 509.242188 370.65625 510.472656 379.769531 510.472656 C 396.824219 510.472656 412.316406 506.054688 425.8125 497.347656 C 461.476562 474.355469 471.714844 440.3125 476.652344 413.207031 C 479.542969 397.273438 477.417969 382.472656 470.9375 369.71875 C 480.933594 365.164062 490.058594 358.175781 497.765625 348.976562 C 515.28125 328.019531 524.804688 302.4375 526.875 270.753906 L 526.96875 269.300781 Z M 458.195312 249.207031 C 460.214844 254.183594 461.285156 260.199219 461.574219 267.949219 C 460.273438 284.789062 455.835938 297.230469 447.667969 307 C 445.492188 309.601562 443.585938 310.523438 442.617188 310.523438 C 441.195312 310.523438 438.738281 308.691406 436.707031 304.664062 C 433.234375 297.785156 433.605469 287.667969 437.722656 276.898438 C 442.539062 264.296875 450.980469 254.257812 458.195312 249.207031 Z M 370.542969 159.25 C 377.835938 169.527344 381.300781 180.8125 381.628906 195.128906 C 380.578125 210.894531 375.832031 216.816406 371.296875 220.515625 C 368.953125 222.425781 366.617188 223.441406 364.539062 223.441406 C 359.882812 223.441406 358.230469 218.199219 357.734375 215.933594 C 353.382812 196.121094 357.453125 177.972656 370.542969 159.25 Z M 251.824219 159.679688 C 260.527344 171.566406 266.046875 189.257812 266.085938 205.71875 C 266.082031 206.632812 265.859375 214.84375 260.0625 221.246094 C 258.542969 222.925781 256.886719 223.707031 254.847656 223.707031 C 251.433594 223.707031 246.9375 221.507812 244.542969 215.324219 C 236.898438 195.613281 239.191406 177.8125 251.824219 159.679688 Z M 156.617188 247.476562 C 179.890625 264.640625 181.621094 282.15625 180.453125 295.625 C 179.894531 302.082031 175.699219 306.90625 169.429688 308.3125 C 167.871094 308.066406 163.039062 305.691406 159.410156 299.539062 C 154.894531 291.902344 152.648438 282.503906 152.167969 269.183594 C 152.597656 260.332031 154.054688 253.21875 156.617188 247.476562 Z M 412.367188 401.503906 C 408.347656 423.582031 402.398438 434.664062 390.421875 442.386719 C 388.621094 443.542969 385.5625 445.089844 379.769531 445.089844 C 376.144531 445.089844 371.90625 444.488281 367.167969 443.292969 C 347.152344 438.265625 326.464844 435.714844 305.683594 435.714844 C 285.289062 435.714844 264.609375 438.050781 242.457031 442.867188 C 237.117188 444.027344 232.414062 444.613281 228.472656 444.613281 C 220.898438 444.613281 214.84375 443.464844 205.855469 428.605469 C 195.949219 412.242188 195.945312 404.285156 197.238281 398.707031 C 197.34375 398.261719 197.441406 397.9375 197.519531 397.707031 C 228.105469 383.203125 251.46875 360.53125 268.921875 328.40625 C 273.921875 319.214844 281.597656 310.703125 303.703125 310.703125 C 304.476562 310.703125 305.25 310.710938 306.042969 310.734375 L 306.96875 310.761719 L 307.894531 310.730469 C 308.304688 310.722656 308.714844 310.714844 309.121094 310.714844 C 318.632812 310.714844 324.472656 313.84375 329.292969 321.523438 C 336.109375 332.363281 345.4375 346.550781 357.1875 360.09375 C 370.277344 375.199219 387.023438 387.21875 406.949219 395.828125 C 410.589844 397.402344 412.101562 398.738281 412.570312 399.21875 C 412.589844 399.574219 412.585938 400.308594 412.367188 401.503906 Z M 412.367188 401.503906 " fill-opacity="1" fill-rule="nonzero"/></g><path fill="#ffbac2" d="M 306.90625 278.054688 C 328.554688 277.398438 345.75 286.269531 356.953125 304.117188 C 364.460938 316.070312 372.40625 327.757812 381.867188 338.667969 C 392.074219 350.441406 404.867188 359.316406 419.894531 365.804688 C 439.839844 374.417969 447.859375 388.910156 444.511719 407.367188 C 440.136719 431.375 432.246094 454.316406 408.125 469.867188 C 392.855469 479.714844 375.292969 479.046875 359.214844 475.003906 C 322.300781 465.734375 286.441406 466.769531 249.398438 474.816406 C 214.914062 482.316406 194.527344 473.011719 177.921875 445.550781 C 167.730469 428.71875 160.867188 410.957031 165.429688 391.273438 C 167.761719 381.285156 173.167969 373.0625 183.425781 368.21875 C 210.035156 355.628906 227.5 336.210938 240.230469 312.78125 C 253.132812 289.042969 274.808594 277.199219 306.90625 278.054688 Z M 306.90625 278.054688 " fill-opacity="1" fill-rule="evenodd"/><path fill="#ffbac2" d="M 414.3125 195.832031 C 413.347656 213.472656 408.582031 232.261719 391.949219 245.84375 C 366.726562 266.441406 332.792969 254.738281 325.828125 222.949219 C 318.5 189.585938 328.214844 160.074219 348.574219 134.023438 C 361.257812 117.78125 379.757812 118.730469 392.96875 134.804688 C 406.808594 151.710938 414.023438 171.144531 414.3125 195.832031 Z M 414.3125 195.832031 " fill-opacity="1" fill-rule="evenodd"/><path fill="#ffbac2" d="M 298.753906 205.921875 C 298.691406 215.886719 295.433594 230.875 284.300781 243.164062 C 263.53125 266.167969 226.09375 258.15625 214.082031 227.15625 C 201.242188 194.027344 207.667969 162.875 229.191406 135.347656 C 242.953125 117.726562 259.800781 118.457031 274.332031 135.492188 C 288.605469 152.222656 298.691406 178.824219 298.753906 205.921875 Z M 298.753906 205.921875 " fill-opacity="1" fill-rule="evenodd"/><path fill="#ffbac2" d="M 119.472656 268.992188 C 119.933594 257.132812 121.878906 244.441406 127.464844 232.667969 C 136.761719 213.03125 155.300781 206.683594 172.960938 218.976562 C 200.230469 237.929688 216 263.898438 213 298.445312 C 211.148438 319.835938 195.824219 336.390625 175.476562 340.449219 C 159.71875 343.609375 141.535156 333.535156 131.300781 316.183594 C 122.871094 301.9375 119.96875 286.339844 119.472656 268.992188 Z M 119.472656 268.992188 " fill-opacity="1" fill-rule="evenodd"/><path fill="#ffbac2" d="M 494.273438 268.621094 C 492.859375 290.257812 487.113281 310.765625 472.707031 327.996094 C 452.914062 351.636719 421.457031 346.941406 407.550781 319.410156 C 388.4375 281.570312 419.1875 228.511719 451.316406 215.980469 C 466.378906 210.097656 475.148438 213.476562 483.71875 227.472656 C 491.371094 239.980469 493.925781 253.8125 494.273438 268.621094 Z M 494.273438 268.621094 " fill-opacity="1" fill-rule="evenodd"/><path stroke-linecap="butt" transform="matrix(0.19653, -0.0542135, 0.0542135, 0.19653, 116.040406, 228.747651)" fill="none" stroke-linejoin="miter" d="M 323.582199 246.473765 C 323.578977 156.851369 310.720902 70.957577 171.727306 70.956712 L 162.030893 70.94532 C 23.032201 70.962926 10.072875 156.850543 10.076097 246.472939 C 10.071628 245.120129 10.515075 265.416736 10.961357 324.03532 C 10.966021 351.326545 14.236292 396.969849 82.113094 396.970612 C 149.074011 396.977115 152.325761 351.324207 152.339568 324.038078 L 152.33376 313.899645 C 136.109551 308.370697 125.048745 292.698182 123.701514 272.291396 L 135.206132 272.304684 C 136.550196 294.956601 151.313347 304.196871 167.094858 304.197389 C 182.31843 304.203006 197.091633 294.96124 198.434719 272.295292 L 210.060351 272.30221 C 208.586044 292.705834 197.548403 308.364503 181.414719 313.891783 L 181.420527 324.030216 C 181.425191 351.321441 184.574449 396.971115 251.535365 396.977618 C 319.412167 396.978381 322.663918 351.325473 322.677725 324.039344 C 323.128857 265.409926 323.57773 245.120955 323.582199 246.473765 Z M 154.130398 215.590971 L 154.138431 182.777683 C 154.144762 177.711014 155.034471 169.369952 167.10976 168.467351 C 180.525127 168.471071 181.417516 177.701255 181.42456 182.79149 L 181.421622 215.586307 C 181.415291 220.652976 180.514117 228.891495 168.457299 229.799191 C 155.041932 229.795471 154.142537 220.662735 154.130398 215.590971 Z M 112.08866 108.389365 C 129.219105 101.050051 148.160326 96.873648 167.097757 96.890066 C 185.584888 96.881647 203.521751 100.597281 218.845378 108.382193 C 223.351571 109.843882 224.815235 113.904849 219.740935 115.367247 C 203.063867 108.381675 182.330301 104.212577 162.476984 104.201899 C 145.342663 104.205849 129.235713 107.474625 114.902602 114.472531 L 114.010282 114.464895 C 110.728253 114.473837 109.828262 110.747246 112.08866 108.389365 Z M 294.944741 358.64576 C 281.08426 370.703326 266.311022 375.333818 250.632055 375.321835 C 240.493622 375.327644 229.890226 373.416338 218.856902 370.253495 L 221.552919 363.722535 C 231.705389 366.980285 240.950875 368.338121 250.191893 368.343147 C 264.504675 368.336033 277.918737 364.165405 290.764618 353.119906 C 291.784317 352.665777 292.239712 352.672143 293.137127 352.661309 C 295.958666 352.664472 297.757342 355.943303 294.944741 358.64576 Z M 49.758173 368.785401 L 52.563104 362.36399 C 62.710479 365.640211 71.96106 366.979576 81.202078 366.984602 C 95.51486 366.977488 108.928922 362.80686 121.793274 351.766457 C 122.794502 351.307233 123.249898 351.313598 124.142217 351.321235 C 126.866308 351.317393 128.779628 354.46884 125.954926 357.287216 C 112.08298 369.242238 97.333308 373.859355 81.649245 373.865842 C 71.510812 373.87165 60.918882 372.062888 49.758173 368.785401 Z M 140.727918 235.427192 C 142.196647 235.434824 143.997216 236.329041 144.450714 238.143612 C 145.802932 244.121697 152.330054 244.670033 157.415194 244.681459 L 161.134148 244.673788 C 166.200817 244.680119 167.104005 250.196444 162.03671 251.561394 C 152.340297 251.550002 140.27901 251.104889 138.023603 239.610478 C 137.571372 236.782573 138.919713 235.425295 140.727918 235.427192 Z M 182.772706 155.495797 C 191.119508 157.301391 194.270402 166.558308 195.292712 174.452878 C 195.289544 176.698008 193.813183 178.159105 192.023449 178.162303 C 190.670639 178.166771 188.749051 176.702515 188.295553 174.887944 C 188.298717 172.066405 187.848351 163.395431 181.418034 161.919744 C 177.694611 160.574605 178.598357 155.497102 182.772706 155.495797 Z M 226.622209 119.531354 C 226.631112 117.6257 227.980724 115.831497 229.891472 115.821929 C 231.699678 115.823826 233.608529 117.622463 233.618097 119.533212 C 233.6162 121.341417 231.691449 122.6987 229.901715 122.701898 C 227.977591 122.6879 226.620312 121.339559 226.622209 119.531354 Z M 205.873917 359.099278 C 206.331209 357.297438 207.691656 356.40065 209.044466 356.396181 C 210.499819 356.380248 212.313764 357.29803 212.765991 359.549526 L 212.75262 360.102369 C 212.307433 362.364699 210.510062 363.260217 209.036237 363.271056 C 207.683427 363.275524 205.889224 361.925912 205.873917 359.099278 Z M 36.902573 357.745828 C 37.341395 355.938894 38.701841 355.042105 40.054651 355.037637 C 41.52338 355.045269 43.323949 355.939485 43.776176 358.190981 L 43.769811 358.646376 C 43.317618 361.006154 41.515152 361.920143 40.046423 361.912511 C 38.693613 361.916979 36.899409 360.567367 36.902573 357.745828 Z M 36.902573 357.745828 " stroke="#d269e6" stroke-width="77.920647" stroke-opacity="1" stroke-miterlimit="4"/><g fill="#ffffff" fill-opacity="1"><g transform="translate(137.222522, 305.59497)"><g><path d="M 55.777344 -45.953125 C 50.921875 -63.558594 43.726562 -79.734375 16.410156 -72.199219 L 14.503906 -71.675781 C -12.808594 -64.140625 -10.695312 -46.558594 -5.839844 -28.953125 C -5.914062 -29.226562 -4.722656 -25.257812 -1.453125 -13.757812 C 0.0234375 -8.40625 3.136719 0.402344 16.476562 -3.277344 C 29.636719 -6.90625 27.792969 -16.066406 26.316406 -21.417969 L 25.765625 -23.414062 C 22.289062 -23.628906 19.261719 -26.113281 17.886719 -30.03125 L 20.15625 -30.65625 C 21.65625 -26.285156 25.058594 -25.269531 28.144531 -26.121094 C 31.140625 -26.949219 33.542969 -29.566406 32.589844 -34.085938 L 34.855469 -34.710938 C 35.6875 -30.644531 34.359375 -26.957031 31.484375 -24.992188 L 32.035156 -22.996094 C 33.511719 -17.640625 36.625 -8.832031 49.78125 -12.464844 C 63.121094 -16.144531 61.28125 -25.300781 59.804688 -30.65625 C 56.714844 -42.207031 55.703125 -46.222656 55.777344 -45.953125 Z M 20.796875 -42.84375 L 19.019531 -49.289062 C 18.746094 -50.285156 18.476562 -51.96875 20.785156 -52.800781 C 23.417969 -53.527344 24.097656 -51.761719 24.375 -50.765625 L 26.152344 -44.320312 C 26.425781 -43.324219 26.695312 -41.640625 24.386719 -40.808594 C 21.753906 -40.082031 21.074219 -41.847656 20.796875 -42.84375 Z M 6.730469 -61.621094 C 9.6875 -64 13.183594 -65.84375 16.90625 -66.867188 C 20.535156 -67.871094 24.273438 -68.121094 27.695312 -67.402344 C 28.675781 -67.382812 29.175781 -66.640625 28.25 -66.09375 C 24.609375 -66.550781 20.300781 -66.242188 16.398438 -65.164062 C 13.039062 -64.238281 10.039062 -62.726562 7.601562 -60.589844 L 7.417969 -60.539062 C 6.785156 -60.367188 6.402344 -61.042969 6.730469 -61.621094 Z M 56.234375 -22.347656 C 54.164062 -19.238281 51.511719 -17.53125 48.425781 -16.679688 C 46.429688 -16.128906 44.242188 -15.914062 41.886719 -15.949219 L 42.082031 -17.371094 C 44.253906 -17.285156 46.144531 -17.515625 47.957031 -18.015625 C 50.773438 -18.789062 53.179688 -20.332031 55.117188 -23.210938 C 55.273438 -23.351562 55.367188 -23.378906 55.546875 -23.429688 C 56.089844 -23.578125 56.628906 -23.042969 56.234375 -22.347656 Z M 8.597656 -7.058594 L 8.792969 -8.480469 C 10.964844 -8.394531 12.855469 -8.625 14.667969 -9.125 C 17.484375 -9.902344 19.890625 -11.445312 21.828125 -14.324219 C 21.984375 -14.464844 22.078125 -14.488281 22.257812 -14.539062 C 22.800781 -14.6875 23.339844 -14.152344 22.945312 -13.457031 C 20.875 -10.347656 18.222656 -8.640625 15.136719 -7.789062 C 13.140625 -7.238281 10.953125 -7.023438 8.597656 -7.058594 Z M 19.242188 -38.21875 C 19.515625 -38.292969 19.925781 -38.210938 20.117188 -37.871094 C 20.714844 -36.769531 22.011719 -37.027344 23.007812 -37.304688 L 23.734375 -37.503906 C 24.734375 -37.777344 25.214844 -36.738281 24.292969 -36.191406 C 22.386719 -35.667969 20.003906 -35.105469 18.921875 -37.25 C 18.683594 -37.769531 18.878906 -38.117188 19.242188 -38.21875 Z M 23.167969 -56.195312 C 24.902344 -56.28125 26.039062 -54.640625 26.644531 -53.148438 C 26.769531 -52.695312 26.574219 -52.347656 26.210938 -52.25 C 25.9375 -52.171875 25.5 -52.34375 25.308594 -52.683594 C 25.160156 -53.226562 24.59375 -54.925781 23.246094 -54.847656 C 22.445312 -54.921875 22.351562 -55.96875 23.167969 -56.195312 Z M 29.835938 -65.652344 C 29.738281 -66.015625 29.910156 -66.453125 30.273438 -66.550781 C 30.636719 -66.652344 31.097656 -66.390625 31.199219 -66.027344 C 31.300781 -65.664062 31.011719 -65.289062 30.648438 -65.191406 C 30.285156 -65.089844 29.9375 -65.289062 29.835938 -65.652344 Z M 38.746094 -17.425781 C 38.738281 -17.8125 38.957031 -18.070312 39.230469 -18.144531 C 39.503906 -18.222656 39.917969 -18.140625 40.132812 -17.710938 L 40.15625 -17.621094 C 40.191406 -17.140625 39.878906 -16.859375 39.605469 -16.785156 C 39.335938 -16.710938 38.894531 -16.882812 38.746094 -17.425781 Z M 5.457031 -8.535156 C 5.449219 -8.925781 5.671875 -9.179688 5.941406 -9.257812 C 6.214844 -9.332031 6.628906 -9.25 6.84375 -8.820312 L 6.867188 -8.730469 C 6.902344 -8.25 6.589844 -7.96875 6.316406 -7.894531 C 6.046875 -7.820312 5.609375 -7.992188 5.457031 -8.535156 Z M 5.457031 -8.535156 "/></g></g></g><path stroke-linecap="butt" transform="matrix(0.203704, -0.00821967, 0.00821967, 0.203704, 235.166899, 140.150611)" fill="none" stroke-linejoin="miter" d="M 82.743887 70.96217 C 14.880353 70.946812 11.614226 116.722561 11.606195 144.009801 L 11.608359 323.593895 C 11.601101 350.861991 14.878838 396.518269 81.841789 396.516463 C 149.705323 396.53182 152.966815 350.870941 152.974845 323.583701 L 152.972682 143.999607 C 152.97994 116.731511 149.706838 70.960363 82.743887 70.96217 Z M 85.114362 373.867329 C 74.970482 373.860712 64.246746 372.066496 53.199596 368.782673 L 56.028442 362.357776 C 66.174236 365.643581 75.420119 366.994641 84.663416 366.984096 C 98.968695 366.986046 112.272225 362.824716 125.240451 351.765644 C 126.140429 351.322557 126.60068 351.321952 127.502036 351.31997 C 130.320972 351.318661 132.111088 354.478243 129.409103 357.28398 C 115.541503 369.24639 100.781247 373.866693 85.114362 373.867329 Z M 115.544892 97.329685 L 112.735191 103.755355 C 102.583989 100.603564 93.342741 99.137634 84.100217 99.129035 C 69.775021 99.145457 56.471491 103.306787 43.518547 114.462357 C 42.617796 114.924589 42.157546 114.925193 41.25619 114.927175 C 38.437253 114.928484 36.632627 111.65326 39.335385 108.828379 C 53.202213 96.885113 67.981614 92.265583 83.648498 92.264946 C 93.793151 92.252419 104.496969 94.065007 115.544892 97.329685 Z M 40.240643 357.751273 C 40.69693 355.947957 42.153052 355.028733 43.513885 355.045292 C 44.856346 355.041933 46.775909 355.943961 47.222355 358.186401 L 47.222959 358.646651 C 46.782559 361.006715 44.866959 361.907399 43.505353 361.909985 C 42.162892 361.913343 40.241952 360.57021 40.240643 357.751273 Z M 121.520756 107.484852 C 121.976439 105.221285 123.896674 104.205732 125.239135 104.202373 C 126.599969 104.218932 128.516273 105.676935 128.503073 108.38023 C 128.061296 110.299188 126.586801 111.198495 125.24434 111.201853 C 123.882734 111.204439 121.963171 110.302412 121.522133 107.925957 Z M 121.520756 107.484852 " stroke="#d269e6" stroke-width="77.920647" stroke-opacity="1" stroke-miterlimit="4"/><g fill="#ffffff" fill-opacity="1"><g transform="translate(238.40307, 219.798086)"><g><path d="M 14.207031 -65.863281 C 0.378906 -65.304688 0.0976562 -55.96875 0.320312 -50.417969 L 1.796875 -13.828125 C 2.019531 -8.277344 3.054688 1.007812 16.695312 0.457031 C 30.519531 -0.101562 30.804688 -9.441406 30.578125 -14.988281 L 29.101562 -51.578125 C 28.878906 -57.128906 27.84375 -66.414062 14.207031 -65.863281 Z M 17.167969 -4.179688 C 15.097656 -4.09375 12.917969 -4.382812 10.636719 -4.953125 L 11.144531 -6.289062 C 13.242188 -5.714844 15.132812 -5.511719 17.015625 -5.585938 C 19.929688 -5.703125 22.625 -6.660156 25.167969 -9.023438 C 25.351562 -9.125 25.445312 -9.128906 25.632812 -9.136719 C 26.199219 -9.160156 26.601562 -8.515625 26.058594 -7.929688 C 23.335938 -5.371094 20.363281 -4.308594 17.167969 -4.179688 Z M 21.101562 -60.769531 L 20.589844 -59.433594 C 18.492188 -60.007812 16.601562 -60.210938 14.71875 -60.136719 C 11.804688 -60.019531 9.109375 -59.0625 6.566406 -56.699219 C 6.382812 -56.597656 6.289062 -56.59375 6.101562 -56.585938 C 5.539062 -56.5625 5.132812 -57.207031 5.675781 -57.792969 C 8.398438 -60.351562 11.371094 -61.414062 14.570312 -61.542969 C 16.636719 -61.628906 18.816406 -61.339844 21.101562 -60.769531 Z M 7.910156 -7.101562 C 7.988281 -7.484375 8.261719 -7.683594 8.546875 -7.695312 C 8.828125 -7.703125 9.210938 -7.53125 9.324219 -7.066406 L 9.328125 -6.972656 C 9.253906 -6.496094 8.882812 -6.292969 8.601562 -6.28125 C 8.320312 -6.269531 7.933594 -6.539062 7.910156 -7.101562 Z M 22.40625 -58.75 C 22.484375 -59.226562 22.851562 -59.429688 23.132812 -59.441406 C 23.414062 -59.453125 23.804688 -59.183594 23.824219 -58.621094 C 23.746094 -58.238281 23.472656 -58.039062 23.191406 -58.027344 C 22.90625 -58.019531 22.523438 -58.191406 22.410156 -58.65625 Z M 22.40625 -58.75 "/></g></g></g><path stroke-linecap="butt" transform="matrix(0.184108, 0.0203896, -0.0203896, 0.184108, 343.687164, 141.511377)" fill="none" stroke-linejoin="miter" d="M 195.367103 113.009617 L 158.846803 177.714095 L 152.412513 190.117348 L 141.694669 185.490818 C 142.710999 182.789765 145.430699 177.269137 152.855784 161.93427 L 152.864546 144.004778 C 152.855705 116.720457 149.590835 70.955874 81.738676 70.959474 C 14.776126 70.949421 11.50636 116.716317 11.49424 144.002959 L 11.501999 323.584354 C 11.48988 350.870996 14.764104 396.528457 81.724332 396.517551 C 149.599773 396.532589 152.860185 350.872815 152.872305 323.586173 L 152.86946 305.551881 C 144.966291 290.323297 142.720973 284.800887 141.708952 281.984994 L 152.4208 277.361496 L 158.834507 289.869497 L 195.354983 354.483742 C 204.606015 371.154343 220.274445 396.534659 251.166089 396.529442 C 285.325051 396.523068 332.904048 366.535773 332.903345 329.554298 C 332.892988 312.984823 325.111074 297.318466 318.571126 286.161128 L 282.174279 233.966462 L 282.167452 233.521657 L 318.587783 181.325172 C 325.128715 170.268009 332.898584 154.597917 332.897581 137.92132 C 332.887524 101.046966 285.316113 70.946352 251.157151 70.952727 C 220.286468 70.955623 204.606775 96.434146 195.367103 113.009617 Z M 230.414466 96.885879 C 235.491592 95.984123 240.575544 95.527172 245.200558 95.524174 C 267.859865 95.518332 285.783062 106.581944 302.455881 123.597542 L 296.941934 128.218248 C 281.160566 112.546692 265.482011 102.401436 245.645218 102.412949 C 241.020204 102.415947 236.402016 102.86375 231.769695 103.758679 C 226.699876 103.768504 226.257058 98.237425 230.414466 96.885879 Z M 302.462656 325.393439 C 303.352745 324.04305 304.724574 323.594082 305.721306 323.589782 C 307.991893 323.592925 309.782102 325.389079 308.8845 328.204286 C 296.941574 356.387896 274.720777 367.441763 246.095412 372.967069 L 245.643926 365.63349 C 272.014679 361.01561 291.852782 350.862137 302.462656 325.393439 Z M 40.125583 108.836583 C 53.993268 96.883128 68.757243 92.256426 84.54423 92.269077 C 94.68619 92.270387 105.281622 94.067371 116.33763 97.340984 L 113.631583 103.751223 C 103.481435 100.610676 94.236597 99.130895 85.007528 99.13457 C 70.685359 99.129431 57.272253 103.309487 44.313091 114.462157 C 43.409348 114.922937 42.941261 114.911125 42.051652 114.924779 C 39.229138 114.919108 37.425481 111.660458 40.125583 108.836583 Z M 51.75034 357.296651 C 61.893456 360.565279 71.124367 361.9193 80.374395 361.913304 C 94.696564 361.918443 108.00487 357.749994 120.954679 346.704445 C 121.858422 346.243665 122.303227 346.236838 123.323239 346.251177 C 126.038631 346.247494 127.958764 349.408375 125.13058 352.225219 C 111.262895 364.178673 96.496598 368.784416 80.840015 368.799757 C 70.677095 368.800768 59.97454 366.994431 48.918533 363.720817 Z M 131.553035 197.56205 C 132.570727 197.555429 133.022359 197.993407 133.921116 198.445518 C 138.556435 202.175603 143.615599 205.901183 149.591003 206.788274 C 153.757079 207.239229 160.63787 203.082446 160.63787 203.082446 C 161.202294 200.707264 163.012101 199.806665 164.369797 199.804823 C 165.706533 199.805303 167.629603 201.268485 167.633287 203.983876 C 167.18049 206.792257 165.272709 208.149267 162.105206 209.051708 C 157.940286 211.868072 154.206723 213.215112 150.049795 213.229923 C 142.728028 213.213323 135.731455 209.044574 129.305927 203.518336 C 126.93621 200.704285 128.856282 197.542452 131.553035 197.56205 Z M 137.646468 265.418723 C 142.710145 263.054471 149.58793 260.786351 156.590653 260.79585 C 163.465294 260.798316 169.887139 263.609163 172.248247 270.943428 C 172.254389 273.297855 170.346608 274.654866 168.988912 274.656707 C 167.631216 274.658549 166.280827 273.76846 165.715452 272.303437 C 164.813011 269.135933 161.2132 267.667493 157.032991 267.663664 C 150.94548 267.68011 143.611216 270.041219 140.345739 271.400071 L 139.453808 271.392765 C 136.18649 271.393921 135.286575 267.674492 137.646468 265.418723 Z M 302.463034 136.114889 L 302.901012 135.663257 C 303.818888 134.755352 305.169757 134.308705 306.187449 134.302084 C 308.437076 134.307549 310.350381 137.023626 308.432767 139.824494 C 307.535851 140.730078 306.632108 141.190858 305.719217 141.185873 C 303.809595 141.185188 302.010237 138.923269 302.463034 136.114889 Z M 181.955073 289.430662 C 181.044024 290.783373 180.033159 291.234799 179.588354 291.241625 C 176.870641 291.224349 174.518681 284.355849 178.230804 284.347866 C 179.122735 284.355172 180.035626 284.360157 181.493137 285.2596 C 182.405549 286.601321 183.310928 288.071124 181.955073 289.430662 Z M 235.941786 366.538244 C 236.387747 369.798735 235.052853 371.155952 233.122271 371.157588 C 231.785535 371.157108 230.421012 370.714145 229.529766 368.797216 C 229.081278 366.088651 230.418699 364.179508 232.686965 364.161692 C 233.686018 364.178352 235.050335 365.194202 235.955919 366.091118 Z M 35.962677 352.679946 C 36.526895 350.877651 37.87797 349.858117 39.235666 349.856276 C 40.593361 349.854434 42.509605 350.872811 42.948945 353.115611 L 42.958093 353.581376 C 42.49847 355.944951 40.581541 356.836197 39.223845 356.838039 C 37.887109 356.837559 35.954685 355.481499 35.962677 352.679946 Z M 122.304896 107.92523 L 122.31903 107.478104 C 122.876421 105.231004 124.6723 104.204644 126.029996 104.202802 C 127.387692 104.200961 129.310763 105.664142 129.293486 108.381855 C 128.847996 110.298305 127.378193 111.203684 126.041457 111.203204 C 124.683762 111.205046 122.886246 110.300823 122.304896 107.92523 Z M 172.247319 195.643741 C 170.910584 195.643261 168.984986 194.732006 168.543325 192.468246 L 168.536498 192.023441 C 168.975161 189.662187 170.910729 188.74766 172.249786 188.769099 C 173.607482 188.767258 175.411824 190.116285 175.406154 192.938799 C 174.967696 194.727166 173.605015 195.641899 172.247319 195.643741 Z M 172.247319 195.643741 " stroke="#d269e6" stroke-width="77.920647" stroke-opacity="1" stroke-miterlimit="4"/><g fill="#ffffff" fill-opacity="1"><g transform="translate(335.714848, 213.49754)"><g><path d="M 41.628906 -47.195312 L 33.59375 -36.035156 L 32.148438 -33.875 L 30.289062 -34.941406 C 30.515625 -35.429688 31.136719 -36.394531 32.808594 -39.050781 L 33.175781 -42.363281 C 33.730469 -47.378906 34.066406 -55.863281 21.570312 -57.246094 C 9.246094 -58.613281 7.71875 -50.261719 7.164062 -45.246094 L 3.5 -12.175781 C 2.945312 -7.160156 2.605469 1.320312 14.933594 2.6875 C 27.429688 4.070312 28.957031 -4.28125 29.511719 -9.296875 L 29.878906 -12.609375 C 28.746094 -15.578125 28.433594 -16.644531 28.320312 -17.171875 L 30.371094 -17.804688 L 31.304688 -15.378906 L 36.703125 -2.734375 C 38.066406 0.515625 40.4375 5.511719 46.132812 6.140625 C 52.425781 6.839844 61.792969 2.28125 62.546875 -4.519531 C 62.882812 -7.578125 61.757812 -10.628906 60.796875 -12.800781 L 55.144531 -23.152344 L 55.152344 -23.238281 L 62.933594 -32.097656 C 64.347656 -34.007812 66.113281 -36.738281 66.453125 -39.796875 C 67.207031 -46.597656 59.0625 -53.09375 52.769531 -53.792969 C 47.074219 -54.421875 43.667969 -50.066406 41.628906 -47.195312 Z M 48.417969 -49.453125 C 49.371094 -49.519531 50.316406 -49.503906 51.167969 -49.410156 C 55.332031 -48.945312 58.421875 -46.539062 61.132812 -43.054688 L 60.019531 -42.316406 C 57.449219 -45.527344 54.765625 -47.71875 51.109375 -48.125 C 50.261719 -48.21875 49.402344 -48.226562 48.53125 -48.152344 C 47.597656 -48.253906 47.625 -49.285156 48.417969 -49.453125 Z M 57.019531 -5.90625 C 57.21875 -6.140625 57.480469 -6.199219 57.652344 -6.179688 C 58.078125 -6.132812 58.378906 -5.753906 58.152344 -5.261719 C 55.367188 -0.320312 51.0625 1.265625 45.679688 1.703125 L 45.742188 0.332031 C 50.683594 0.0195312 54.546875 -1.445312 57.019531 -5.90625 Z M 13.148438 -51.125 C 15.945312 -53.050781 18.757812 -53.601562 21.648438 -53.28125 C 23.519531 -53.074219 25.4375 -52.515625 27.410156 -51.695312 L 26.769531 -50.5625 C 24.964844 -51.363281 23.292969 -51.808594 21.59375 -51.996094 C 18.957031 -52.285156 16.40625 -51.792969 13.800781 -50.019531 C 13.621094 -49.953125 13.535156 -49.960938 13.367188 -49.980469 C 12.855469 -50.035156 12.582031 -50.667969 13.148438 -51.125 Z M 10.207031 -5.152344 C 12.011719 -4.347656 13.683594 -3.90625 15.386719 -3.71875 C 18.019531 -3.425781 20.570312 -3.917969 23.175781 -5.695312 C 23.355469 -5.761719 23.441406 -5.75 23.613281 -5.730469 C 24.121094 -5.675781 24.394531 -5.042969 23.828125 -4.589844 C 21.035156 -2.660156 18.21875 -2.113281 15.328125 -2.433594 C 13.457031 -2.640625 11.542969 -3.195312 9.566406 -4.019531 Z M 28.171875 -32.9375 C 28.34375 -32.917969 28.417969 -32.824219 28.578125 -32.71875 C 29.355469 -31.945312 30.214844 -31.160156 31.300781 -30.871094 C 32.054688 -30.699219 33.414062 -31.324219 33.414062 -31.324219 C 33.546875 -31.738281 33.90625 -31.871094 34.160156 -31.84375 C 34.417969 -31.816406 34.730469 -31.523438 34.671875 -31.011719 C 34.53125 -30.511719 34.164062 -30.292969 33.546875 -30.191406 C 32.726562 -29.765625 32.019531 -29.585938 31.253906 -29.667969 C 29.894531 -29.820312 28.703125 -30.726562 27.625 -31.878906 C 27.257812 -32.4375 27.664062 -32.992188 28.171875 -32.9375 Z M 27.894531 -20.316406 C 28.875 -20.640625 30.199219 -20.921875 31.472656 -20.78125 C 32.75 -20.640625 33.882812 -20 34.15625 -18.589844 C 34.109375 -18.167969 33.742188 -17.949219 33.488281 -17.976562 C 33.230469 -18.003906 32.996094 -18.203125 32.9375 -18.46875 C 32.835938 -19.082031 32.183594 -19.414062 31.417969 -19.496094 C 30.3125 -19.621094 28.90625 -19.34375 28.28125 -19.15625 L 28.113281 -19.175781 C 27.515625 -19.242188 27.421875 -19.941406 27.894531 -20.316406 Z M 60.878906 -40.761719 L 60.972656 -40.835938 C 61.164062 -40.988281 61.425781 -41.042969 61.597656 -41.023438 C 62.023438 -40.976562 62.304688 -40.429688 61.910156 -39.957031 C 61.722656 -39.804688 61.542969 -39.738281 61.371094 -39.757812 C 61.03125 -39.796875 60.738281 -40.257812 60.878906 -40.761719 Z M 35.566406 -14.992188 C 35.367188 -14.757812 35.1875 -14.691406 35.101562 -14.699219 C 34.59375 -14.757812 34.308594 -16.078125 34.988281 -16.003906 C 35.160156 -15.984375 35.328125 -15.964844 35.566406 -15.769531 C 35.707031 -15.492188 35.847656 -15.21875 35.566406 -14.992188 Z M 43.941406 0.304688 C 43.960938 0.910156 43.675781 1.136719 43.335938 1.097656 C 43.082031 1.070312 42.835938 0.957031 42.703125 0.597656 C 42.675781 0.078125 42.96875 -0.234375 43.390625 -0.1875 C 43.5625 -0.167969 43.796875 0.03125 43.949219 0.21875 Z M 7.414062 -6.320312 C 7.535156 -6.652344 7.808594 -6.792969 8.0625 -6.765625 C 8.320312 -6.738281 8.640625 -6.53125 8.679688 -6.09375 L 8.667969 -6.011719 C 8.535156 -5.59375 8.179688 -5.460938 7.921875 -5.492188 C 7.667969 -5.519531 7.355469 -5.8125 7.414062 -6.320312 Z M 28.300781 -49.617188 L 28.308594 -49.703125 C 28.441406 -50.117188 28.800781 -50.25 29.054688 -50.222656 C 29.308594 -50.195312 29.621094 -49.902344 29.566406 -49.390625 C 29.441406 -49.058594 29.167969 -48.917969 28.914062 -48.945312 C 28.660156 -48.976562 28.335938 -49.183594 28.300781 -49.617188 Z M 35.691406 -32.449219 C 35.4375 -32.476562 35.117188 -32.683594 35.078125 -33.117188 L 35.085938 -33.203125 C 35.21875 -33.621094 35.578125 -33.75 35.832031 -33.722656 C 36.089844 -33.695312 36.398438 -33.402344 36.34375 -32.890625 C 36.222656 -32.5625 35.945312 -32.421875 35.691406 -32.449219 Z M 35.691406 -32.449219 "/></g></g></g><path stroke-linecap="butt" transform="matrix(0.175829, 0.0582726, -0.0582726, 0.175829, 436.98207, 221.590499)" fill="none" stroke-linejoin="miter" d="M 160.422242 396.530462 L 167.844497 396.536601 C 209.337196 396.514841 317.000635 382.649676 316.995034 239.045846 C 316.988948 142.096251 263.000119 71.968381 165.025297 70.959055 L 164.578507 70.951615 C 65.828368 70.954593 11.257232 141.181881 11.27509 239.03844 C 11.260673 382.648904 118.922909 396.532204 160.422242 396.530462 Z M 149.817269 258.416688 L 149.807782 213.676353 C 149.816528 208.608155 150.726104 199.353566 162.769767 199.361012 C 176.1872 199.357491 177.098186 208.608552 177.08944 213.67675 L 177.098927 258.417086 C 177.089951 263.618658 176.200622 272.733238 164.136943 272.732427 C 150.719509 272.735948 149.808293 263.61826 149.817269 258.416688 Z M 215.43019 119.547503 C 198.737168 112.549903 178.004703 108.379531 158.165317 108.378639 C 141.013422 108.375716 124.902859 111.648922 110.586626 118.526323 L 109.679662 118.538095 C 106.412008 118.532457 105.504624 114.923123 107.762736 112.552962 C 124.907272 105.22697 143.833561 101.065016 162.779366 101.051029 C 181.264998 101.056254 199.190903 104.668281 214.515292 112.563793 C 219.134399 113.898836 220.494286 118.069121 215.43019 119.547503 Z M 110.577075 344.335212 C 127.156741 351.325947 148.015946 355.476532 167.855332 355.477424 C 184.873854 355.480117 201.097773 352.213775 215.42087 345.223018 L 216.334468 345.231263 C 219.602122 345.236902 220.502641 348.959591 218.131174 351.322888 C 201.099994 358.655745 182.173705 362.817698 163.221266 362.811668 C 144.742268 362.826461 126.709871 359.094214 111.491973 351.318922 C 106.873097 349.850505 105.506345 345.793576 110.577075 344.335212 Z M 141.030898 276.013567 C 142.498008 276.016099 144.283673 276.912786 144.740509 278.827492 C 146.096484 285.265129 152.174455 287.516301 158.149617 287.513275 C 161.884079 287.519719 165.493412 286.612335 168.309943 285.256781 C 168.757539 284.797413 169.651119 284.812292 170.117927 284.813098 C 172.918773 284.817931 175.173852 288.06948 172.47501 290.785653 C 168.302998 293.145843 163.685923 294.49829 159.064515 294.496984 C 149.821699 294.494372 140.560172 289.876985 138.32289 280.176832 C 137.860915 277.375181 139.210336 276.017094 141.030898 276.013567 Z M 196.935351 202.167475 C 196.931438 204.434827 195.59517 205.899635 193.661252 205.896298 C 192.307498 205.90063 190.509486 204.430413 189.952447 202.615565 C 189.942401 200.708299 186.350139 187.858181 176.188587 186.960377 C 172.029079 185.939557 171.579262 179.956955 176.647461 179.965701 C 188.135309 181.312597 195.594181 191.015091 196.935351 202.167475 Z M 100.439954 337.008822 C 102.240498 337.011929 103.705307 338.348197 103.7022 340.148741 C 103.698862 342.082659 102.248663 343.874037 100.428101 343.877564 C 98.520835 343.88761 96.716764 342.063942 96.706718 340.156676 C 96.709825 338.356132 98.526054 336.998851 100.439954 337.008822 Z M 225.57253 119.985133 C 227.373074 119.98824 229.283868 121.798755 229.28076 123.5993 C 229.290807 125.506566 227.367856 126.877 225.567312 126.873893 C 223.653411 126.863921 222.295325 125.5145 222.305296 123.6006 C 222.308403 121.800056 223.665264 119.995179 225.57253 119.985133 Z M 225.57253 119.985133 " stroke="#d269e6" stroke-width="77.920647" stroke-opacity="1" stroke-miterlimit="4"/><g fill="#ffffff" fill-opacity="1"><g transform="translate(414.235935, 290.352264)"><g><path d="M 27.851562 10.3125 L 29.148438 10.742188 C 36.457031 13.164062 56.179688 16.996094 64.546875 -8.253906 C 70.199219 -25.300781 64.789062 -40.792969 47.632812 -46.65625 L 47.550781 -46.683594 C 30.175781 -52.441406 16.503906 -43.277344 10.800781 -26.066406 C 2.433594 -0.816406 20.542969 7.890625 27.851562 10.3125 Z M 34.027344 -14.582031 L 36.636719 -22.457031 C 36.933594 -23.351562 37.632812 -24.921875 39.746094 -24.222656 C 42.097656 -23.441406 41.722656 -21.765625 41.429688 -20.871094 L 38.816406 -12.996094 C 38.523438 -12.101562 37.820312 -10.53125 35.710938 -11.230469 C 33.355469 -12.011719 33.730469 -13.691406 34.027344 -14.582031 Z M 53.65625 -35.199219 C 51.136719 -37.386719 47.726562 -39.328125 44.234375 -40.484375 C 41.230469 -41.480469 38.199219 -41.855469 35.28125 -41.46875 L 35.117188 -41.523438 C 34.546875 -41.710938 34.601562 -42.417969 35.140625 -42.6875 C 38.578125 -42.992188 42.148438 -42.617188 45.476562 -41.515625 C 48.722656 -40.4375 51.675781 -38.738281 53.898438 -36.472656 C 54.628906 -35.960938 54.628906 -35.148438 53.65625 -35.199219 Z M 22.121094 -1.769531 C 24.640625 0.417969 28.050781 2.359375 31.542969 3.515625 C 34.546875 4.511719 37.578125 4.886719 40.496094 4.5 L 40.660156 4.554688 C 41.230469 4.742188 41.175781 5.445312 40.636719 5.71875 C 37.199219 6.023438 33.628906 5.648438 30.300781 4.546875 C 27.054688 3.46875 24.101562 1.769531 21.878906 -0.496094 C 21.148438 -1.011719 21.148438 -1.820312 22.121094 -1.769531 Z M 31.460938 -12.007812 C 31.707031 -11.929688 31.976562 -11.660156 31.949219 -11.308594 C 31.816406 -10.089844 32.738281 -9.332031 33.792969 -8.984375 C 34.445312 -8.769531 35.148438 -8.714844 35.714844 -8.796875 C 35.824219 -8.851562 35.984375 -8.796875 36.066406 -8.773438 C 36.554688 -8.609375 36.769531 -7.90625 36.121094 -7.582031 C 35.257812 -7.417969 34.363281 -7.441406 33.550781 -7.710938 C 31.929688 -8.25 30.574219 -9.601562 30.734375 -11.441406 C 30.8125 -11.953125 31.136719 -12.117188 31.460938 -12.007812 Z M 45.589844 -21.742188 C 45.457031 -21.335938 45.132812 -21.175781 44.808594 -21.28125 C 44.5625 -21.363281 44.320312 -21.714844 44.347656 -22.066406 C 44.453125 -22.390625 44.558594 -24.878906 42.824219 -25.632812 C 42.148438 -26.039062 42.417969 -27.121094 43.3125 -26.824219 C 45.261719 -25.910156 45.992188 -23.773438 45.589844 -21.742188 Z M 20.765625 -3.660156 C 21.089844 -3.550781 21.253906 -3.226562 21.144531 -2.902344 C 21.039062 -2.578125 20.6875 -2.335938 20.363281 -2.441406 C 20.039062 -2.550781 19.820312 -2.980469 19.929688 -3.308594 C 20.035156 -3.632812 20.441406 -3.769531 20.765625 -3.660156 Z M 55.414062 -34.527344 C 55.738281 -34.417969 55.957031 -33.988281 55.847656 -33.664062 C 55.742188 -33.335938 55.335938 -33.203125 55.011719 -33.308594 C 54.6875 -33.417969 54.523438 -33.742188 54.632812 -34.066406 C 54.738281 -34.390625 55.089844 -34.632812 55.414062 -34.527344 Z M 55.414062 -34.527344 "/></g></g></g><path stroke-linecap="butt" transform="matrix(0.230808, -0.0291951, 0.0291951, 0.230808, 185.965524, 356.950522)" fill="none" stroke-linejoin="miter" d="M 258.606757 249.742164 C 229.529472 249.753632 217.90805 271.385206 189.272294 271.384826 C 165.27239 271.395416 152.410443 257.07532 152.409755 237.680061 C 152.420794 217.389301 165.256603 201.276318 189.273164 201.267835 C 217.90892 201.268214 229.516138 223.367064 258.607973 223.374361 C 291.408952 223.360029 310.793811 185.041559 310.796178 155.052116 C 310.793804 109.847186 264.127742 70.959017 174.513438 70.962849 L 168.540556 70.952 C 70.232081 73.325566 11.046044 134.754545 11.04185 231.255998 C 11.052179 346.240551 76.210809 394.271406 168.535431 396.522843 L 174.510421 396.517035 C 264.122618 396.52986 310.799448 362.814427 310.797074 317.609498 C 310.804329 285.708234 289.949888 249.746518 258.606757 249.742164 Z M 70.227389 136.113881 C 93.236874 102.857286 134.376001 87.633465 174.503549 87.631969 C 199.415611 87.635214 223.996113 93.604622 243.393128 103.758696 C 243.395993 107.48239 239.677271 111.192291 237.307264 111.197143 C 236.392999 111.199966 235.941729 110.753627 235.497377 109.851209 C 235.497377 109.851209 203.589387 95.982155 180.589144 95.983799 C 137.652168 95.985337 100.217213 107.480492 73.838102 143.560312 C 69.671054 149.07517 65.610869 154.14659 64.142292 161.475188 C 63.695875 163.398856 62.337377 163.836291 60.981583 163.850961 C 59.525842 163.85299 57.716154 162.371687 57.266872 160.571661 C 59.074883 150.425803 65.167585 144.003675 70.227389 136.113881 Z M 54.900128 293.144451 C 55.46315 291.235533 57.260353 289.871985 58.61404 289.873972 C 59.967727 289.875959 61.433209 290.332117 61.882491 292.132143 C 63.241908 299.581518 67.408008 304.644187 71.583849 310.165042 C 97.854948 346.253417 135.276997 357.73974 178.230631 357.740309 C 201.33082 357.751307 233.12541 343.884122 233.12541 343.884122 C 233.697377 342.974865 234.143716 342.523596 235.041324 342.518665 C 237.30717 342.534487 241.017071 346.253209 241.018027 349.858192 C 221.628539 360.115695 197.161706 366.09225 172.249644 366.089006 C 132.003385 366.09241 90.975595 350.866693 67.865885 317.615295 C 62.789691 309.712705 56.815811 303.287445 54.900128 293.144451 Z M 154.674195 278.381563 C 155.571803 278.376633 156.581205 278.825874 157.488553 279.27913 C 163.467285 288.074397 171.805364 288.519816 181.045861 288.520884 L 183.753235 288.524858 C 188.830617 288.52398 189.722185 294.05251 184.659475 295.409183 C 171.797337 295.406964 159.747413 295.405938 152.418967 283.901309 C 150.953445 280.635723 152.406242 278.382399 154.674195 278.381563 Z M 160.192096 189.668799 C 169.43859 181.326978 181.492609 179.957659 193.001059 179.957891 C 198.076333 179.973671 198.970009 185.485543 193.892549 186.958819 C 178.220984 186.956643 171.353437 189.202019 164.367936 195.189655 C 163.465518 195.634007 163.009439 195.627089 162.111831 195.63202 C 159.285745 195.629954 157.484762 192.474253 160.192096 189.668799 Z M 254.884909 340.713021 C 253.089693 340.722881 251.610456 339.706484 251.168091 337.450378 C 251.175008 336.994299 251.163161 336.55277 250.711891 336.106431 C 251.165226 333.726684 253.088774 332.836072 254.442461 332.838059 C 255.340069 332.833129 256.237677 332.828198 256.698687 333.732724 C 260.855005 335.527778 259.960183 340.728801 255.340988 340.719938 Z M 253.53784 116.279603 C 253.991175 113.899856 255.339932 113.004235 257.135148 112.994374 L 257.709939 112.999383 C 262.329133 113.008246 263.227619 118.080697 259.059615 119.990571 C 258.606359 120.89792 257.708751 120.90285 256.694539 120.893031 C 255.340851 120.891044 253.542812 119.986639 253.079774 117.626373 C 253.526113 117.175104 253.53303 116.719024 253.53784 116.279603 Z M 213.292739 187.855739 C 214.306951 187.865559 215.204559 187.860628 216.563176 188.760223 C 217.458798 190.10898 218.356327 191.576448 217.01731 192.930256 C 216.101058 194.286767 215.198639 194.731119 214.759218 194.726308 C 211.931025 194.740901 209.687756 187.856696 213.292739 187.855739 Z M 198.069085 287.069307 C 198.966693 287.064377 199.989851 288.073857 200.880542 288.525006 C 202.691265 292.138893 201.339606 293.592647 199.425679 293.604416 C 196.718304 293.600442 192.089327 290.323965 196.722236 288.083639 C 197.166667 287.513659 197.613006 287.06239 198.069085 287.069307 Z M 198.069085 287.069307 " stroke="#d269e6" stroke-width="77.920647" stroke-opacity="1" stroke-miterlimit="4"/><path stroke-linecap="butt" transform="matrix(0.232616, -0.00378059, 0.00378059, 0.232616, 265.86459, 347.119371)" fill="none" stroke-linejoin="miter" d="M 323.646923 246.477259 C 323.659337 156.855026 310.798486 70.953053 171.805496 70.961084 L 162.116233 70.954743 C 23.106728 70.945712 10.140464 156.847747 10.144838 246.470252 C 10.149878 245.126921 10.592534 265.419651 11.050498 324.033483 C 11.04361 351.321446 14.315208 396.966693 82.174169 396.978046 C 149.143354 396.974937 152.421074 351.318584 152.411174 324.030348 L 152.408093 313.88753 C 136.175338 308.367605 125.128429 292.705231 123.780847 272.297039 L 135.283783 272.299271 C 136.628381 294.957631 151.406867 304.198685 167.175105 304.203068 C 182.406119 304.198719 197.166037 294.950751 198.525163 272.285954 L 210.12883 272.289823 C 208.67196 292.702814 197.619559 308.375458 181.492942 313.890036 L 181.496023 324.032854 C 181.505923 351.32109 184.659731 396.981216 251.612128 396.977834 C 319.488149 396.972672 322.749082 351.316045 322.755696 324.04487 C 323.204842 265.412196 323.652236 245.117139 323.646923 246.477259 Z M 154.223877 215.596008 L 154.219803 182.783081 C 154.218263 177.711672 155.126401 169.363686 167.181295 168.468085 C 180.598635 168.467845 181.506226 177.71856 181.490978 182.789696 L 181.495325 215.585834 C 181.496865 220.657243 180.590638 228.887712 168.535471 229.800101 C 155.11813 229.800341 154.225418 220.667417 154.223877 215.596008 Z M 112.171142 108.379902 C 129.301218 101.051233 148.244036 96.87546 167.186067 96.881046 C 185.674816 96.879266 203.599346 100.596287 218.922005 108.385223 C 223.43218 109.852316 224.894425 113.906319 219.832854 115.368981 C 203.136979 108.380568 182.398576 104.21479 162.566495 104.211531 C 145.42135 104.201562 129.297445 107.482761 114.994068 114.47114 L 114.087231 114.473194 C 110.812708 114.470353 109.916079 110.744603 112.171142 108.379902 Z M 295.022907 358.640429 C 281.157564 370.707311 266.388738 375.337153 250.72123 375.334407 C 240.561624 375.337215 229.979841 373.418798 218.93139 370.25014 L 221.623734 363.711174 C 231.780499 366.982889 241.027955 368.342254 250.263936 368.341228 C 264.588113 368.338934 277.989179 364.17385 290.847373 353.114951 C 291.862034 352.67804 292.315589 352.668619 293.222426 352.666564 C 296.026606 352.678554 297.837712 355.93218 295.022907 358.640429 Z M 49.819358 368.794687 L 52.644371 362.358633 C 62.784347 365.630075 72.031803 366.98944 81.284572 366.988687 C 95.591961 366.98612 109.009816 362.821309 121.86801 351.76241 C 122.88267 351.325499 123.336225 351.316078 124.226274 351.313751 C 126.929724 351.324103 128.859985 354.47891 126.026755 357.287615 C 112.163322 369.23698 97.394496 373.866822 81.726988 373.864076 C 71.58417 373.867157 60.983689 372.065984 49.819358 368.794687 Z M 140.803277 235.428328 C 142.264126 235.435278 144.063066 236.337733 144.52073 238.141986 C 145.867928 244.108484 152.40797 244.668177 157.479379 244.666637 L 161.207184 244.676845 C 166.278592 244.675305 167.179603 250.197941 162.103154 251.542813 C 152.413619 251.55326 140.346976 251.105258 138.09904 239.599335 C 137.640959 236.787516 139.006391 235.432709 140.803277 235.428328 Z M 182.857985 155.507045 C 191.19151 157.304959 194.349269 166.558659 195.363174 174.434103 C 195.359916 176.701059 193.892118 178.154958 192.095232 178.15934 C 190.735112 178.154027 188.827658 176.69565 188.369995 174.891397 C 188.382257 172.070429 187.918672 163.397882 181.494093 161.933261 C 177.771328 160.579722 178.676625 155.506259 182.857985 155.507045 Z M 226.700362 119.544419 C 226.697891 117.630016 228.053902 115.821654 229.968305 115.819183 C 231.781979 115.815074 233.700492 117.626277 233.686175 119.540407 C 233.690556 121.337293 231.77084 122.699884 229.973954 122.704266 C 228.059823 122.689949 226.704744 121.341305 226.700362 119.544419 Z M 205.964107 359.090574 C 206.413007 357.301055 207.771072 356.399531 209.114676 356.387782 C 210.575525 356.394732 212.391253 357.29746 212.84155 359.554995 L 212.832546 360.109007 C 212.392794 362.368869 210.581446 363.263027 209.120325 363.272865 C 207.760206 363.267553 205.968632 361.911815 205.964107 359.090574 Z M 36.967955 357.73776 C 37.433644 355.948514 38.77492 355.046717 40.135312 355.035241 C 41.596161 355.042191 43.395101 355.944647 43.845398 358.202182 L 43.855092 358.638948 C 43.396642 361.016055 41.602083 361.910486 40.124173 361.920051 C 38.780842 361.915012 36.972481 360.559001 36.967955 357.73776 Z M 36.967955 357.73776 " stroke="#d269e6" stroke-width="77.920647" stroke-opacity="1" stroke-miterlimit="4"/><path stroke-linecap="butt" transform="matrix(0.231797, 0.0198735, -0.0198735, 0.231797, 350.122896, 346.468656)" fill="none" stroke-linejoin="miter" d="M 264.575515 128.226619 C 264.574113 86.737007 240.574843 78.85192 221.180045 77.498251 L 44.75539 77.491188 C 25.357307 78.850979 1.345483 86.740481 1.346885 128.230094 C 1.345432 170.276068 25.3667 178.614274 44.761497 179.967944 L 97.845334 179.966761 L 97.849457 193.380635 L 65.156964 193.386143 L 65.163688 323.584459 C 65.160472 350.868194 68.31612 396.519459 135.286548 396.524181 C 203.149354 396.519801 206.414814 350.874128 206.41803 323.590393 L 206.405749 179.961475 L 221.184718 179.958278 C 247.440808 179.965341 264.574062 170.272594 264.575515 128.226619 Z M 241.917036 123.596986 C 243.838493 123.600767 245.194539 125.068596 245.645807 127.776789 C 248.461694 155.509757 228.620571 158.77811 195.370282 158.764034 C 190.298974 158.77753 189.269294 153.254081 194.351085 151.79041 C 245.200372 150.885428 234.590995 139.375084 239.221791 125.968277 C 239.673436 124.16009 241.024658 123.606087 241.917036 123.596986 Z M 74.289207 88.996807 C 79.479053 88.99 80.373466 94.508195 75.309838 95.98716 C 24.459117 96.875414 35.051764 108.387191 30.437698 121.792564 C 29.986053 123.600751 28.636266 124.171483 27.725724 124.16529 C 25.820996 124.160074 24.46495 122.692245 24.013682 119.984052 C 21.199229 92.267813 41.140726 88.990854 74.289207 88.996807 Z M 181.046944 357.295802 C 167.173525 369.236867 152.420948 373.872114 136.629629 373.860994 C 126.485579 373.871258 115.882632 372.067141 104.832747 368.784658 L 107.5518 362.366836 C 117.691144 365.643124 126.940457 366.990328 136.175401 366.9906 C 150.499816 366.992671 163.909294 362.809618 176.882708 351.771466 C 177.771252 351.32454 178.225806 351.319273 179.136347 351.325466 C 181.950182 351.320146 183.75365 354.468523 181.046944 357.295802 Z M 176.42906 156.41091 C 174.508475 152.682752 175.976305 151.326706 177.779224 151.323798 C 180.594493 151.335207 185.104733 154.605407 180.596528 156.862503 C 180.027271 157.298906 179.588025 157.875831 179.132037 157.86437 C 178.22293 157.874906 177.326705 156.856362 176.42906 156.41091 Z M 90.527452 89.896472 C 91.41983 89.88737 92.332783 90.904479 93.231864 91.366661 C 95.140973 94.960986 93.683184 96.434135 91.880265 96.437043 C 89.166804 96.433758 84.554756 93.155434 89.164769 90.906462 C 89.615489 90.46337 90.071464 89.88501 90.527452 89.896472 Z M 95.1439 355.03833 C 96.492265 355.04069 98.305721 355.946889 98.868824 358.190489 L 98.874092 358.645042 C 98.302488 361.019632 96.491941 361.916352 95.143575 361.913992 C 93.678105 361.921673 91.876112 360.559486 91.870791 357.74565 C 92.322437 355.937463 93.67843 355.046011 95.1439 355.03833 Z M 95.1439 355.03833 " stroke="#d269e6" stroke-width="77.920647" stroke-opacity="1" stroke-miterlimit="4"/><g fill="#ffffff" fill-opacity="1"><g transform="translate(197.380827, 447.196481)"><g><path d="M 55.558594 -40.160156 C 48.84375 -39.3125 46.8125 -33.964844 40.203125 -33.128906 C 34.664062 -32.429688 31.261719 -35.355469 30.695312 -39.832031 C 30.101562 -44.519531 32.613281 -48.628906 38.15625 -49.328125 C 44.761719 -50.164062 48.074219 -45.386719 54.789062 -46.234375 C 62.355469 -47.195312 65.714844 -56.605469 64.835938 -63.53125 C 63.515625 -73.976562 51.617188 -81.566406 30.941406 -78.953125 L 29.558594 -78.777344 C 6.925781 -75.375 -4.925781 -59.472656 -2.105469 -37.199219 C 1.25 -10.660156 17.679688 -1.476562 39.0625 -3.640625 L 40.449219 -3.816406 C 61.121094 -6.433594 70.902344 -15.574219 69.582031 -26.019531 C 68.652344 -33.371094 62.804688 -41.078125 55.558594 -40.160156 Z M 8.757812 -60.878906 C 13.117188 -69.226562 22.15625 -73.941406 31.429688 -75.117188 C 37.183594 -75.84375 43.007812 -75.171875 47.78125 -73.394531 C 47.886719 -72.542969 47.144531 -71.582031 46.609375 -71.515625 C 46.398438 -71.488281 46.277344 -71.582031 46.144531 -71.78125 C 46.144531 -71.78125 38.386719 -74.046875 33.058594 -73.371094 C 23.144531 -72.117188 14.851562 -68.363281 9.828125 -59.28125 C 9.027344 -57.882812 8.21875 -56.585938 8.113281 -54.84375 C 8.0625 -54.402344 7.753906 -54.253906 7.433594 -54.214844 C 7.117188 -54.175781 6.648438 -54.441406 6.488281 -54.851562 C 6.617188 -57.25 7.816406 -58.917969 8.757812 -60.878906 Z M 9.824219 -24.199219 C 9.878906 -24.636719 10.261719 -25.011719 10.582031 -25.050781 C 10.902344 -25.09375 11.234375 -25.027344 11.394531 -24.613281 C 11.933594 -22.949219 13.039062 -21.898438 14.160156 -20.742188 C 21.285156 -13.195312 30.257812 -11.625 40.167969 -12.878906 C 45.496094 -13.550781 52.445312 -17.679688 52.445312 -17.679688 C 52.523438 -17.90625 52.617188 -18.023438 52.832031 -18.050781 C 53.363281 -18.121094 54.324219 -17.375 54.433594 -16.523438 C 50.253906 -13.613281 44.78125 -11.511719 39.023438 -10.785156 C 29.753906 -9.609375 19.824219 -11.929688 13.523438 -18.925781 C 12.121094 -20.589844 10.546875 -21.90625 9.824219 -24.199219 Z M 32.414062 -30.519531 C 32.625 -30.546875 32.851562 -30.46875 33.078125 -30.386719 C 34.722656 -28.539062 36.652344 -28.675781 38.785156 -28.945312 L 39.425781 -29.023438 C 40.597656 -29.171875 40.972656 -27.921875 39.839844 -27.453125 C 36.855469 -27.074219 34.085938 -26.726562 32.042969 -29.175781 C 31.628906 -29.878906 31.878906 -30.453125 32.414062 -30.519531 Z M 31.105469 -51.144531 C 32.992188 -53.332031 35.722656 -54.003906 38.386719 -54.339844 C 39.558594 -54.488281 39.933594 -53.238281 38.804688 -52.769531 C 35.179688 -52.308594 33.648438 -51.574219 32.226562 -49.988281 C 32.023438 -49.855469 31.917969 -49.839844 31.707031 -49.8125 C 31.066406 -49.730469 30.546875 -50.425781 31.105469 -51.144531 Z M 57.359375 -19.058594 C 56.933594 -19.003906 56.585938 -19.175781 56.414062 -19.695312 C 56.398438 -19.804688 56.386719 -19.910156 56.265625 -20.003906 C 56.304688 -20.550781 56.703125 -20.816406 57.023438 -20.855469 C 57.238281 -20.882812 57.449219 -20.910156 57.585938 -20.710938 C 58.597656 -20.40625 58.53125 -19.207031 57.46875 -19.070312 Z M 50.488281 -70.8125 C 50.527344 -71.359375 50.820312 -71.613281 51.246094 -71.667969 L 51.355469 -71.679688 C 52.417969 -71.816406 52.78125 -70.671875 51.875 -70.121094 C 51.796875 -69.894531 51.582031 -69.867188 51.371094 -69.84375 C 51.050781 -69.800781 50.597656 -69.960938 50.421875 -70.480469 C 50.515625 -70.601562 50.503906 -70.707031 50.488281 -70.8125 Z M 43.304688 -53.121094 C 43.519531 -53.148438 43.734375 -53.175781 44.078125 -53.003906 C 44.332031 -52.710938 44.585938 -52.417969 44.308594 -52.058594 C 44.132812 -51.710938 43.933594 -51.578125 43.828125 -51.5625 C 43.1875 -51.480469 42.453125 -53.011719 43.304688 -53.121094 Z M 42.6875 -29.761719 C 42.902344 -29.789062 43.140625 -29.605469 43.367188 -29.523438 C 43.902344 -28.726562 43.621094 -28.363281 43.195312 -28.3125 C 42.558594 -28.230469 41.398438 -28.839844 42.394531 -29.507812 C 42.488281 -29.628906 42.582031 -29.75 42.6875 -29.761719 Z M 42.6875 -29.761719 "/></g></g></g><g fill="#ffffff" fill-opacity="1"><g transform="translate(267.342801, 438.072419)"><g><path d="M 74.75 -34.84375 C 74.410156 -55.679688 71.078125 -75.609375 38.746094 -75.085938 L 36.492188 -75.046875 C 4.160156 -74.523438 1.476562 -54.496094 1.816406 -33.65625 C 1.8125 -33.980469 1.996094 -29.253906 2.324219 -15.617188 C 2.425781 -9.277344 3.351562 1.34375 19.140625 1.085938 C 34.714844 0.832031 35.296875 -9.8125 35.191406 -16.152344 L 35.152344 -18.511719 C 31.375 -19.742188 28.738281 -23.351562 28.335938 -28.074219 L 31.023438 -28.117188 C 31.429688 -22.859375 34.902344 -20.765625 38.554688 -20.824219 C 42.097656 -20.882812 45.5 -23.085938 45.738281 -28.355469 L 48.421875 -28.398438 C 48.179688 -23.667969 45.660156 -19.972656 41.921875 -18.625 L 41.960938 -16.261719 C 42.0625 -9.921875 42.988281 0.699219 58.5625 0.445312 C 74.351562 0.1875 74.929688 -10.457031 74.828125 -16.792969 C 74.710938 -30.4375 74.742188 -35.164062 74.75 -34.84375 Z M 35.210938 -41.398438 L 35.085938 -49.023438 C 35.070312 -50.207031 35.253906 -52.144531 38.042969 -52.402344 C 41.15625 -52.453125 41.40625 -50.308594 41.425781 -49.128906 L 41.550781 -41.503906 C 41.566406 -40.320312 41.386719 -38.382812 38.59375 -38.125 C 35.480469 -38.074219 35.230469 -40.21875 35.210938 -41.398438 Z M 25.03125 -66.160156 C 28.980469 -67.941406 33.367188 -68.980469 37.769531 -69.050781 C 42.066406 -69.121094 46.269531 -68.332031 49.84375 -66.5625 C 50.921875 -66.257812 51.261719 -65.296875 50.085938 -64.957031 C 46.191406 -66.503906 41.34375 -67.390625 36.722656 -67.316406 C 32.75 -67.25 29.003906 -66.4375 25.699219 -64.773438 L 25.484375 -64.769531 C 24.734375 -64.757812 24.503906 -65.613281 25.03125 -66.160156 Z M 68.511719 -8.632812 C 65.335938 -5.789062 61.917969 -4.660156 58.265625 -4.601562 C 55.902344 -4.5625 53.425781 -4.949219 50.835938 -5.660156 L 51.453125 -7.175781 C 53.828125 -6.460938 55.984375 -6.175781 58.132812 -6.210938 C 61.460938 -6.261719 64.558594 -7.28125 67.527344 -9.90625 C 67.738281 -10.019531 67.847656 -10.019531 68.0625 -10.023438 C 68.707031 -10.035156 69.148438 -9.289062 68.511719 -8.632812 Z M 11.515625 -5.34375 L 12.136719 -6.859375 C 14.511719 -6.144531 16.664062 -5.859375 18.8125 -5.894531 C 22.144531 -5.945312 25.242188 -6.964844 28.207031 -9.589844 C 28.421875 -9.703125 28.527344 -9.703125 28.742188 -9.707031 C 29.386719 -9.71875 29.828125 -8.972656 29.195312 -8.316406 C 26.019531 -5.472656 22.597656 -4.34375 18.945312 -4.28125 C 16.585938 -4.246094 14.105469 -4.632812 11.515625 -5.34375 Z M 32.171875 -36.730469 C 32.496094 -36.734375 32.925781 -36.527344 33.042969 -36.097656 C 33.386719 -34.707031 34.890625 -34.625 36.074219 -34.644531 L 36.933594 -34.660156 C 38.113281 -34.675781 38.351562 -33.390625 37.175781 -33.050781 C 34.917969 -33.015625 32.125 -33.074219 31.542969 -35.753906 C 31.425781 -36.394531 31.742188 -36.722656 32.171875 -36.730469 Z M 41.644531 -55.472656 C 43.585938 -55.074219 44.371094 -52.9375 44.617188 -51.113281 C 44.625 -50.578125 44.308594 -50.25 43.878906 -50.242188 C 43.554688 -50.238281 43.121094 -50.550781 43.007812 -50.980469 C 42.996094 -51.625 42.855469 -53.664062 41.347656 -53.960938 C 40.480469 -54.269531 40.675781 -55.453125 41.644531 -55.472656 Z M 51.710938 -64.015625 C 51.707031 -64.445312 52.019531 -64.878906 52.449219 -64.886719 C 52.878906 -64.894531 53.316406 -64.46875 53.324219 -64.039062 C 53.332031 -63.609375 52.90625 -63.28125 52.476562 -63.273438 C 52.046875 -63.269531 51.71875 -63.585938 51.710938 -64.015625 Z M 47.785156 -8.191406 C 47.886719 -8.621094 48.203125 -8.839844 48.527344 -8.847656 C 48.847656 -8.851562 49.28125 -8.644531 49.398438 -8.109375 L 49.398438 -8 C 49.300781 -7.460938 48.875 -7.242188 48.550781 -7.234375 C 48.230469 -7.230469 47.796875 -7.546875 47.785156 -8.191406 Z M 8.46875 -7.875 C 8.566406 -8.304688 8.886719 -8.523438 9.207031 -8.53125 C 9.53125 -8.535156 9.964844 -8.328125 10.078125 -7.792969 L 10.082031 -7.683594 C 9.984375 -7.144531 9.558594 -6.925781 9.234375 -6.917969 C 8.914062 -6.914062 8.476562 -7.230469 8.46875 -7.875 Z M 8.46875 -7.875 "/></g></g></g><g fill="#ffffff" fill-opacity="1"><g transform="translate(342.352357, 437.101208)"><g><path d="M 66.550781 -55.644531 C 67.375 -65.277344 61.96875 -67.574219 57.5 -68.277344 L 16.613281 -71.785156 C 12.089844 -71.847656 6.367188 -70.507812 5.542969 -60.875 C 4.707031 -51.132812 10.109375 -48.730469 14.574219 -48.023438 L 26.882812 -46.96875 L 26.617188 -43.863281 L 19.019531 -44.515625 L 16.429688 -14.332031 C 15.890625 -8.019531 15.730469 2.640625 31.25 3.972656 C 46.984375 5.320312 48.640625 -5.210938 49.183594 -11.523438 L 52.035156 -44.8125 L 55.460938 -44.519531 C 61.5625 -43.996094 65.714844 -45.902344 66.550781 -55.644531 Z M 61.398438 -57.164062 C 61.828125 -57.125 62.121094 -56.777344 62.171875 -56.125 C 62.261719 -49.648438 57.597656 -49.292969 49.890625 -49.957031 C 48.714844 -50.054688 48.609375 -51.359375 49.8125 -51.578125 C 61.605469 -50.785156 59.375 -53.671875 60.710938 -56.683594 C 60.855469 -57.101562 61.183594 -57.179688 61.398438 -57.164062 Z M 23.234375 -68.523438 C 24.410156 -68.421875 24.515625 -67.117188 23.308594 -66.898438 C 11.519531 -67.691406 13.75 -64.804688 12.414062 -61.792969 C 12.269531 -61.375 11.941406 -61.296875 11.726562 -61.3125 C 11.296875 -61.351562 11.003906 -61.699219 10.953125 -62.351562 C 10.859375 -68.828125 15.527344 -69.183594 23.234375 -68.523438 Z M 42.625 -4.214844 C 39.175781 -1.707031 35.660156 -0.933594 32.019531 -1.242188 C 29.667969 -1.445312 27.242188 -2.085938 24.738281 -3.054688 L 25.507812 -4.496094 C 27.796875 -3.546875 29.910156 -3.042969 32.050781 -2.859375 C 35.371094 -2.574219 38.554688 -3.269531 41.773438 -5.582031 C 41.996094 -5.671875 42.105469 -5.664062 42.316406 -5.644531 C 42.960938 -5.589844 43.324219 -4.804688 42.625 -4.214844 Z M 45.546875 -50.867188 C 45.191406 -51.761719 45.542969 -52.054688 45.96875 -52.015625 C 46.613281 -51.960938 47.617188 -51.121094 46.503906 -50.675781 C 46.386719 -50.578125 46.269531 -50.480469 46.164062 -50.492188 C 45.949219 -50.507812 45.753906 -50.742188 45.546875 -50.867188 Z M 26.960938 -67.988281 C 27.175781 -67.96875 27.371094 -67.734375 27.574219 -67.609375 C 27.929688 -66.71875 27.582031 -66.421875 27.152344 -66.460938 C 26.511719 -66.515625 25.503906 -67.355469 26.621094 -67.800781 C 26.738281 -67.898438 26.855469 -67.996094 26.960938 -67.988281 Z M 22.765625 -6.457031 C 23.085938 -6.429688 23.496094 -6.179688 23.554688 -5.636719 L 23.546875 -5.527344 C 23.394531 -5.003906 22.949219 -4.824219 22.625 -4.851562 C 22.304688 -4.878906 21.90625 -5.238281 21.960938 -5.878906 C 22.105469 -6.300781 22.441406 -6.484375 22.765625 -6.457031 Z M 22.765625 -6.457031 "/></g></g></g></svg>